<svg width="232" height="238" viewBox="0 0 232 238" fill="none" xmlns="http://www.w3.org/2000/svg">
<rect width="232" height="238" rx="4" fill="url(#paint0_linear_202_1767)"/>
<path d="M51.7684 117.974C51.7684 118.864 51.0647 119.586 50.1965 119.586C49.3284 119.586 48.6246 118.864 48.6246 117.974C48.6246 117.083 49.3284 116.361 50.1965 116.361C51.0647 116.361 51.7684 117.083 51.7684 117.974Z" fill="white"/>
<path d="M55.1752 88.0462V88.1256C55.1403 90.4491 54.4447 92.7115 53.1738 94.635C51.9029 96.5585 50.1121 98.0593 48.0212 98.9532C45.345 100.42 43.2467 102.792 42.0833 105.667C41.4634 107.743 41.5881 109.979 42.4348 111.969C43.2815 113.96 44.7944 115.574 46.6999 116.52C46.9656 116.644 47.1928 116.841 47.3565 117.089C47.5202 117.337 47.6143 117.627 47.6282 117.926V118.107C47.6143 118.406 47.5202 118.696 47.3565 118.944C47.1928 119.192 46.9656 119.389 46.6999 119.513C44.7944 120.459 43.2815 122.073 42.4348 124.064C41.5881 126.054 41.4634 128.29 42.0833 130.366C43.2545 133.236 45.3507 135.606 48.0212 137.08C50.1245 137.977 51.9241 139.49 53.1961 141.428C54.4681 143.367 55.1564 145.647 55.1752 147.984C55.0705 150.209 54.2413 152.333 52.8204 154.018C51.3994 155.702 49.4688 156.849 47.3374 157.275C45.3595 157.813 43.2595 157.611 41.4137 156.704C39.568 155.798 38.0974 154.247 37.2655 152.329C37.0936 151.948 37.0736 151.513 37.2097 151.116C37.3458 150.72 37.6273 150.394 37.9942 150.208C38.3612 150.021 38.7846 149.989 39.1744 150.118C39.5642 150.246 39.8896 150.526 40.0813 150.898C40.6092 152.155 41.5623 153.174 42.7649 153.767C43.9676 154.361 45.3387 154.488 46.6257 154.126C48.0603 153.841 49.3657 153.085 50.3452 151.973C51.3247 150.86 51.9252 149.451 52.0561 147.958C52.0561 143.924 50.0789 141.997 46.4493 139.838C43.0666 137.972 40.4474 134.925 39.0664 131.249C38.3807 128.88 38.3971 126.356 39.1134 123.998C39.8297 121.639 41.2135 119.552 43.0889 118.002C41.2135 116.452 39.8297 114.365 39.1134 112.007C38.3971 109.648 38.3807 107.124 39.0664 104.756C40.4474 101.079 43.0666 98.032 46.4493 96.1661C50.0758 94.0076 52.0561 92.0808 52.0561 88.1256V88.0748C52.0629 86.6499 51.6079 85.2631 50.7627 84.1323C49.9175 83.0015 48.73 82.1909 47.3869 81.8278C45.9653 81.4298 44.453 81.5525 43.11 82.1747C41.7671 82.7969 40.6775 83.8798 40.0287 85.237C39.8054 85.5856 39.4592 85.832 39.0626 85.9243C38.6661 86.0165 38.2501 85.9476 37.9021 85.7319C37.554 85.5162 37.301 85.1705 37.1961 84.7675C37.0913 84.3644 37.1428 83.9354 37.3397 83.5705C38.3423 81.6092 39.9674 80.0578 41.9464 79.1729C43.9253 78.2881 46.1394 78.1227 48.2223 78.7043C50.2244 79.2548 51.9924 80.4699 53.2503 82.16C54.5081 83.8501 55.185 85.9199 55.1752 88.0462Z" fill="white"/>
<path d="M45.2735 84.6875C46.1114 84.6875 46.9304 84.9424 47.627 85.4199C48.3236 85.8974 48.8665 86.5761 49.1872 87.3701C49.5078 88.1642 49.5917 89.0379 49.4282 89.8809C49.2648 90.7239 48.8613 91.4982 48.2689 92.106C47.6765 92.7137 46.9217 93.1276 46.1 93.2953C45.2782 93.4629 44.4265 93.3769 43.6525 93.048C42.8784 92.7191 42.2169 92.1621 41.7514 91.4474C41.2859 90.7328 41.0375 89.8926 41.0375 89.0331C41.0399 87.8814 41.487 86.7775 42.2809 85.9631C43.0748 85.1487 44.1508 84.69 45.2735 84.6875ZM44.1565 89.0331C44.1565 89.2598 44.222 89.4813 44.3448 89.6698C44.4675 89.8582 44.642 90.0051 44.8461 90.0919C45.0502 90.1786 45.2748 90.2013 45.4915 90.157C45.7082 90.1128 45.9072 90.0037 46.0634 89.8434C46.2196 89.6832 46.326 89.479 46.3691 89.2567C46.4122 89.0344 46.3901 88.804 46.3056 88.5946C46.221 88.3852 46.0778 88.2063 45.8941 88.0804C45.7104 87.9544 45.4945 87.8872 45.2735 87.8872C44.9786 87.8906 44.6966 88.0124 44.4883 88.2267C44.2801 88.441 44.162 88.7305 44.1596 89.0331H44.1565Z" fill="white"/>
<path d="M49.5096 147.59C49.5096 148.449 49.2612 149.29 48.7957 150.004C48.3302 150.719 47.6687 151.276 46.8946 151.605C46.1206 151.934 45.2688 152.02 44.4471 151.852C43.6254 151.684 42.8706 151.27 42.2782 150.663C41.6858 150.055 41.2823 149.281 41.1189 148.438C40.9554 147.595 41.0393 146.721 41.3599 145.927C41.6805 145.133 42.2235 144.454 42.9201 143.977C43.6167 143.499 44.4357 143.244 45.2736 143.244C46.3963 143.247 47.4723 143.705 48.2662 144.52C49.0601 145.334 49.5072 146.438 49.5096 147.59ZM44.1565 147.59C44.1565 147.817 44.222 148.038 44.3448 148.227C44.4675 148.415 44.642 148.562 44.8461 148.649C45.0502 148.735 45.2748 148.758 45.4915 148.714C45.7082 148.67 45.9072 148.56 46.0634 148.4C46.2196 148.24 46.326 148.036 46.3691 147.813C46.4122 147.591 46.3901 147.361 46.3056 147.151C46.221 146.942 46.0778 146.763 45.8941 146.637C45.7104 146.511 45.4945 146.444 45.2736 146.444C44.9781 146.446 44.6953 146.568 44.4864 146.782C44.2774 146.997 44.1589 147.287 44.1565 147.59Z" fill="white"/>
<path d="M47.9161 122.37C47.985 122.171 48.092 121.988 48.2307 121.832C48.3693 121.676 48.537 121.55 48.7237 121.462C48.9104 121.373 49.1125 121.323 49.3181 121.316C49.5237 121.308 49.7287 121.343 49.9212 121.417C50.3065 121.569 50.6192 121.868 50.7925 122.252C50.9659 122.637 50.9863 123.075 50.8495 123.474C50.7473 123.735 48.7175 129.982 55.9736 134.769C56.1912 134.917 56.3699 135.118 56.494 135.354C56.6181 135.589 56.6838 135.853 56.6853 136.121C56.6877 136.427 56.5992 136.727 56.4315 136.981C56.3216 137.16 56.1782 137.315 56.0096 137.437C55.841 137.559 55.6505 137.646 55.4491 137.692C55.2477 137.738 55.0395 137.742 54.8363 137.705C54.6332 137.668 54.4392 137.59 54.2655 137.476C51.6866 136.078 49.6508 133.818 48.496 131.071C47.3411 128.323 47.1365 125.253 47.9161 122.37Z" fill="white"/>
<path d="M47.916 113.679C47.3876 111.973 47.2573 110.164 47.5354 108.397C47.8851 106.349 48.6742 104.406 49.8457 102.709C51.0171 101.012 52.5416 99.6033 54.3088 98.5849C54.4818 98.4685 54.6758 98.3889 54.8793 98.3508C55.0829 98.3126 55.2918 98.3168 55.4938 98.363C55.6957 98.4091 55.8866 98.4964 56.0551 98.6196C56.2236 98.7428 56.3663 98.8994 56.4748 99.0801C56.6424 99.3338 56.7309 99.6338 56.7285 99.9403C56.7267 100.208 56.6609 100.472 56.5368 100.707C56.4128 100.943 56.2342 101.144 56.0168 101.293C48.7607 106.054 50.7906 112.301 50.8927 112.587C50.9655 112.784 50.9992 112.994 50.9918 113.205C50.9844 113.416 50.9361 113.624 50.8496 113.815C50.7632 114.007 50.6404 114.179 50.4884 114.321C50.3364 114.463 50.1582 114.573 49.9644 114.644C49.7682 114.719 49.5594 114.753 49.3501 114.745C49.1408 114.738 48.9351 114.687 48.7448 114.598C48.5544 114.508 48.3833 114.381 48.241 114.223C48.0988 114.065 47.9883 113.88 47.916 113.679Z" fill="white"/>
<path d="M59.1764 152.745C59.1355 152.365 59.2296 151.982 59.4415 151.668C59.6534 151.353 59.9688 151.128 60.3297 151.033C60.6907 150.938 61.0729 150.98 61.4062 151.151C61.7394 151.322 62.0013 151.61 62.1438 151.964C63.1816 154.127 63.7365 156.501 63.7683 158.912C63.714 162.356 62.4844 165.672 60.2934 168.283C58.4659 170.514 56.2353 172.361 53.7242 173.724C53.3707 173.903 52.9638 173.937 52.5865 173.819C52.2092 173.701 51.8901 173.44 51.6944 173.089C50.7661 171.451 50.172 168.613 52.7341 164.293C53.6303 162.809 54.6757 161.426 55.8531 160.166C57.7996 158.186 58.9804 155.549 59.1764 152.745ZM58.1862 162.347L58.1088 162.426C56.0615 164.418 54.6394 166.991 54.0244 169.816C55.4556 168.815 56.752 167.625 57.8798 166.277C59.6579 164.208 60.6325 161.54 60.6183 158.782C59.9463 160.063 59.1312 161.259 58.1893 162.347H58.1862Z" fill="white"/>
<path d="M51.6942 63.7369C51.8899 63.3856 52.209 63.1242 52.5863 63.0062C52.9636 62.8882 53.3706 62.9225 53.7241 63.1021C56.2362 64.4642 58.4678 66.3117 60.2963 68.5429C62.4917 71.1506 63.7219 74.4681 63.7712 77.9134C63.7449 80.3253 63.1897 82.7002 62.1467 84.862C61.9868 85.1947 61.7202 85.461 61.3917 85.6163C61.0633 85.7716 60.6928 85.8064 60.3422 85.7149C59.9917 85.6234 59.6825 85.4112 59.4663 85.1138C59.2501 84.8164 59.14 84.4518 59.1545 84.0811C58.9708 81.2792 57.7982 78.6418 55.856 76.6627C54.6787 75.4027 53.6333 74.0196 52.737 72.5361C51.7774 71.3168 51.1709 69.8455 50.9865 68.2898C50.8021 66.7342 51.0474 65.1566 51.6942 63.7369ZM58.1922 74.5106C59.1393 75.5952 59.9568 76.7919 60.6274 78.0753C60.4927 75.8225 59.8207 73.6382 58.6704 71.7143C57.5201 69.7903 55.9268 68.1857 54.0304 67.0414C54.6454 69.8665 56.0674 72.4393 58.1148 74.4312L58.1922 74.5106Z" fill="white"/>
<path d="M158.955 201.39H178.424C178.841 201.39 179.241 201.56 179.536 201.862C179.831 202.165 179.997 202.576 179.997 203.004C179.997 203.432 179.831 203.842 179.536 204.145C179.241 204.448 178.841 204.618 178.424 204.618H158.964C158.547 204.618 158.146 204.448 157.851 204.145C157.556 203.842 157.391 203.432 157.391 203.004C157.391 202.576 157.556 202.165 157.851 201.862C158.146 201.56 158.547 201.39 158.964 201.39H158.955Z" fill="white"/>
<path d="M54.7113 201.39H74.1805C74.5978 201.39 74.998 201.56 75.2931 201.862C75.5882 202.165 75.754 202.576 75.754 203.004C75.754 203.432 75.5882 203.842 75.2931 204.145C74.998 204.448 74.5978 204.618 74.1805 204.618H54.7237C54.3075 204.615 53.9091 204.445 53.6149 204.143C53.3206 203.841 53.1542 203.432 53.1518 203.005C53.1505 202.794 53.1899 202.585 53.2677 202.389C53.3454 202.194 53.46 202.016 53.6049 201.866C53.7497 201.716 53.922 201.596 54.1119 201.515C54.3017 201.433 54.5054 201.39 54.7113 201.39Z" fill="white"/>
<path d="M179.402 185.204C180.27 185.204 180.974 185.926 180.974 186.816C180.974 187.707 180.27 188.429 179.402 188.429C178.534 188.429 177.83 187.707 177.83 186.816C177.83 185.926 178.534 185.204 179.402 185.204Z" fill="white"/>
<path d="M116.106 190.279C116.974 190.279 117.678 191.001 117.678 191.892C117.678 192.783 116.974 193.505 116.106 193.505C115.238 193.505 114.534 192.783 114.534 191.892C114.534 191.001 115.238 190.279 116.106 190.279Z" fill="white"/>
<path d="M86.9326 186.785H87.01C89.2749 186.82 91.4803 187.534 93.3553 188.838C95.2303 190.141 96.6933 191.979 97.5646 194.124C98.9942 196.869 101.307 199.021 104.109 200.215C106.133 200.851 108.312 200.723 110.253 199.854C112.193 198.986 113.766 197.434 114.688 195.479C114.81 195.206 115.002 194.973 115.243 194.805C115.485 194.637 115.767 194.541 116.059 194.527H116.235C116.527 194.541 116.809 194.637 117.051 194.805C117.293 194.973 117.485 195.206 117.606 195.479C118.528 197.434 120.102 198.986 122.042 199.854C123.982 200.723 126.161 200.851 128.186 200.215C130.983 199.013 133.293 196.863 134.73 194.124C135.605 191.966 137.079 190.12 138.969 188.815C140.859 187.51 143.081 186.804 145.359 186.785C147.528 186.892 149.599 187.743 151.241 189.2C152.883 190.658 154.001 192.638 154.416 194.825C154.941 196.854 154.743 199.008 153.86 200.902C152.977 202.795 151.464 204.304 149.595 205.157C149.223 205.334 148.799 205.354 148.413 205.215C148.027 205.075 147.709 204.786 147.527 204.41C147.345 204.033 147.314 203.599 147.439 203.199C147.565 202.799 147.838 202.465 148.199 202.269C149.425 201.727 150.419 200.749 150.997 199.516C151.575 198.282 151.699 196.875 151.346 195.555C151.068 194.083 150.332 192.744 149.247 191.739C148.163 190.735 146.79 190.119 145.334 189.984C141.401 189.984 139.523 192.013 137.419 195.736C135.6 199.206 132.63 201.893 129.046 203.31C126.737 204.013 124.277 203.997 121.978 203.262C119.678 202.527 117.644 201.107 116.133 199.183C114.623 201.107 112.588 202.527 110.289 203.262C107.99 203.997 105.53 204.013 103.221 203.31C99.6371 201.893 96.6666 199.206 94.8478 195.736C92.7437 192.016 90.8655 189.984 87.01 189.984H86.9605C85.5715 189.977 84.2196 190.444 83.1173 191.311C82.015 192.178 81.2248 193.396 80.8709 194.774C80.483 196.233 80.6026 197.784 81.2091 199.162C81.8156 200.539 82.8712 201.657 84.1942 202.323C84.5341 202.552 84.7742 202.907 84.8641 203.314C84.9541 203.721 84.8869 204.147 84.6766 204.504C84.4663 204.861 84.1294 205.121 83.7365 205.229C83.3436 205.336 82.9254 205.283 82.5697 205.081C80.6579 204.053 79.1456 202.386 78.283 200.355C77.4204 198.325 77.2593 196.054 77.8262 193.917C78.3628 191.863 79.5473 190.05 81.1948 188.759C82.8422 187.469 84.8599 186.774 86.9326 186.785Z" fill="white"/>
<path d="M52.2493 185.204C53.1174 185.204 53.8212 185.926 53.8212 186.816C53.8212 187.707 53.1174 188.429 52.2493 188.429C51.3811 188.429 50.6774 187.707 50.6774 186.816C50.6774 185.926 51.3811 185.204 52.2493 185.204Z" fill="white"/>
<path d="M47.8367 201.367C48.7048 201.367 49.4086 202.089 49.4086 202.98C49.4086 203.87 48.7048 204.592 47.8367 204.592C46.9685 204.592 46.2648 203.87 46.2648 202.98C46.2648 202.089 46.9685 201.367 47.8367 201.367Z" fill="white"/>
<path d="M184.984 201.368C185.853 201.368 186.556 202.09 186.556 202.98C186.556 203.871 185.853 204.593 184.984 204.593C184.116 204.593 183.412 203.871 183.412 202.98C183.412 202.09 184.116 201.368 184.984 201.368Z" fill="white"/>
<path d="M83.6588 196.942C83.6588 196.083 83.9073 195.243 84.3728 194.528C84.8382 193.813 85.4998 193.256 86.2738 192.927C87.0479 192.598 87.8996 192.512 88.7213 192.68C89.543 192.848 90.2978 193.262 90.8903 193.869C91.4827 194.477 91.8861 195.251 92.0496 196.094C92.213 196.937 92.1292 197.811 91.8085 198.605C91.4879 199.399 90.9449 200.078 90.2483 200.555C89.5517 201.033 88.7327 201.288 87.8949 201.288C86.7722 201.285 85.6962 200.827 84.9023 200.012C84.1084 199.198 83.6613 198.094 83.6588 196.942ZM87.8949 198.088C88.1158 198.088 88.3318 198.021 88.5155 197.895C88.6992 197.769 88.8424 197.59 88.9269 197.381C89.0115 197.171 89.0336 196.941 88.9905 196.719C88.9474 196.496 88.841 196.292 88.6848 196.132C88.5285 195.972 88.3295 195.863 88.1128 195.818C87.8962 195.774 87.6715 195.797 87.4674 195.884C87.2633 195.97 87.0889 196.117 86.9661 196.306C86.8434 196.494 86.7779 196.716 86.7779 196.942C86.7811 197.245 86.8999 197.534 87.1088 197.748C87.3177 197.961 87.5999 198.082 87.8949 198.085V198.088Z" fill="white"/>
<path d="M144.975 192.597C145.813 192.597 146.632 192.851 147.328 193.329C148.025 193.806 148.568 194.485 148.888 195.279C149.209 196.073 149.293 196.947 149.129 197.79C148.966 198.633 148.563 199.407 147.97 200.015C147.378 200.623 146.623 201.037 145.801 201.204C144.979 201.372 144.128 201.286 143.354 200.957C142.58 200.628 141.918 200.071 141.453 199.357C140.987 198.642 140.739 197.802 140.739 196.942C140.741 195.79 141.188 194.687 141.982 193.872C142.776 193.058 143.852 192.599 144.975 192.597ZM144.975 198.088C145.196 198.088 145.412 198.021 145.595 197.895C145.779 197.769 145.922 197.59 146.007 197.381C146.091 197.171 146.113 196.941 146.07 196.719C146.027 196.496 145.921 196.292 145.765 196.132C145.608 195.972 145.409 195.863 145.193 195.818C144.976 195.774 144.751 195.797 144.547 195.884C144.343 195.97 144.169 196.117 144.046 196.306C143.923 196.494 143.858 196.716 143.858 196.942C143.86 197.245 143.979 197.535 144.188 197.75C144.396 197.964 144.679 198.086 144.975 198.088Z" fill="white"/>
<path d="M120.391 194.231C120.197 194.161 120.019 194.051 119.867 193.909C119.715 193.766 119.592 193.595 119.506 193.403C119.419 193.211 119.371 193.004 119.364 192.793C119.356 192.582 119.39 192.372 119.463 192.174C119.61 191.779 119.902 191.458 120.277 191.281C120.651 191.103 121.079 191.082 121.468 191.222C121.722 191.327 127.811 193.409 132.477 185.966C132.622 185.742 132.818 185.559 133.047 185.432C133.277 185.304 133.534 185.237 133.795 185.235C134.094 185.233 134.387 185.324 134.634 185.496C134.809 185.609 134.96 185.756 135.078 185.929C135.197 186.102 135.282 186.297 135.327 186.504C135.371 186.71 135.376 186.924 135.34 187.132C135.304 187.341 135.228 187.54 135.117 187.718C133.754 190.363 131.551 192.452 128.873 193.637C126.194 194.821 123.202 195.031 120.391 194.231Z" fill="white"/>
<path d="M111.919 194.232C110.256 194.774 108.492 194.907 106.77 194.622C104.773 194.263 102.88 193.454 101.225 192.252C99.5713 191.05 98.1982 189.486 97.2055 187.674C97.0921 187.496 97.0145 187.297 96.9773 187.088C96.9401 186.879 96.9442 186.665 96.9892 186.458C97.0342 186.251 97.1193 186.055 97.2393 185.882C97.3594 185.709 97.5121 185.563 97.6883 185.452C97.9356 185.279 98.228 185.189 98.5268 185.191C98.788 185.193 99.0447 185.261 99.2745 185.388C99.5043 185.515 99.7002 185.698 99.845 185.921C104.486 193.365 110.576 191.283 110.854 191.178C111.047 191.103 111.252 191.069 111.457 191.076C111.663 191.084 111.865 191.133 112.052 191.222C112.239 191.311 112.406 191.437 112.545 191.593C112.684 191.749 112.791 191.931 112.859 192.13C112.933 192.332 112.966 192.546 112.959 192.76C112.951 192.975 112.902 193.186 112.815 193.381C112.727 193.577 112.603 193.752 112.449 193.898C112.296 194.044 112.115 194.157 111.919 194.232Z" fill="white"/>
<path d="M184.096 189.835L191.733 198.723V185.896C191.733 185.468 191.899 185.057 192.194 184.755C192.489 184.452 192.889 184.282 193.307 184.282C193.724 184.282 194.124 184.452 194.419 184.755C194.714 185.057 194.88 185.468 194.88 185.896V202.98C194.881 203.307 194.785 203.627 194.604 203.896C194.424 204.165 194.167 204.372 193.869 204.488C193.571 204.604 193.246 204.624 192.937 204.545C192.627 204.466 192.349 204.292 192.138 204.047L181.763 191.946C181.626 191.788 181.521 191.604 181.455 191.404C181.388 191.204 181.361 190.993 181.375 190.782C181.389 190.571 181.444 190.365 181.537 190.177C181.63 189.988 181.758 189.82 181.915 189.683C182.066 189.542 182.243 189.434 182.436 189.365C182.629 189.296 182.834 189.268 183.037 189.283C183.241 189.297 183.44 189.353 183.622 189.448C183.804 189.543 183.965 189.675 184.096 189.835Z" fill="white"/>
<path d="M39.2374 184.267C39.6535 184.27 40.0519 184.441 40.3462 184.742C40.6404 185.044 40.8068 185.453 40.8093 185.88V198.71L48.4459 189.822C48.7247 189.526 49.1039 189.351 49.5051 189.333C49.9063 189.315 50.2989 189.456 50.6016 189.726C50.9044 189.997 51.0942 190.377 51.1318 190.787C51.1694 191.197 51.052 191.606 50.8038 191.93L40.4287 204.059C40.2179 204.304 39.9397 204.476 39.6309 204.554C39.3222 204.633 38.9975 204.612 38.7002 204.497C38.4029 204.381 38.147 204.175 37.9666 203.906C37.7861 203.638 37.6898 203.319 37.6902 202.993V185.896C37.6848 185.684 37.7209 185.473 37.7962 185.276C37.8716 185.078 37.9847 184.899 38.1289 184.747C38.2731 184.595 38.4455 184.474 38.6359 184.392C38.8262 184.31 39.0308 184.267 39.2374 184.267Z" fill="white"/>
<path d="M150 182.68C149.63 182.722 149.257 182.625 148.951 182.408C148.644 182.191 148.424 181.867 148.332 181.497C148.239 181.126 148.28 180.734 148.447 180.392C148.613 180.051 148.895 179.782 149.239 179.636C151.348 178.571 153.662 178.002 156.012 177.969C159.37 178.025 162.602 179.286 165.147 181.534C167.321 183.409 169.122 185.697 170.45 188.273C170.625 188.636 170.659 189.053 170.544 189.44C170.429 189.827 170.174 190.155 169.831 190.355C168.235 191.308 165.468 191.917 161.257 189.289C159.811 188.369 158.463 187.297 157.235 186.089C155.305 184.092 152.734 182.881 150 182.68ZM159.36 183.696L159.438 183.775C161.379 185.875 163.887 187.334 166.641 187.965C165.666 186.497 164.506 185.167 163.191 184.01C161.174 182.186 158.574 181.186 155.885 181.201C157.134 181.89 158.3 182.726 159.36 183.692V183.696Z" fill="white"/>
<path d="M63.2361 190.356C62.8936 190.155 62.6388 189.827 62.5238 189.44C62.4088 189.053 62.4422 188.636 62.6172 188.273C63.945 185.696 65.7459 183.407 67.9208 181.531C70.4629 179.279 73.6967 178.017 77.0552 177.966C79.4063 177.993 81.7213 178.563 83.8285 179.633C84.1529 179.797 84.4125 180.07 84.5639 180.407C84.7152 180.744 84.7491 181.124 84.66 181.484C84.5708 181.843 84.364 182.161 84.074 182.382C83.7841 182.604 83.4287 182.717 83.0674 182.702C80.336 182.891 77.7652 184.094 75.836 186.086C74.6078 187.294 73.2595 188.366 71.8134 189.286C70.6248 190.27 69.1906 190.892 67.6742 191.082C66.1577 191.271 64.62 191.019 63.2361 190.356ZM73.7381 183.689C74.7954 182.718 75.9619 181.879 77.2129 181.191C75.017 181.329 72.8877 182.019 71.0123 183.199C69.1369 184.379 67.5727 186.013 66.4572 187.959C69.2111 187.328 71.7191 185.869 73.6607 183.769L73.7381 183.689Z" fill="white"/>
<path d="M187.493 173.125C187.843 173.126 188.183 173.246 188.459 173.468C188.735 173.689 188.931 173.999 189.016 174.347C189.317 175.319 189.408 176.348 189.281 177.359C189.153 178.371 188.812 179.342 188.279 180.204C187.028 181.915 185.167 183.048 183.103 183.353C182.711 183.409 182.313 183.311 181.988 183.079C181.664 182.847 181.436 182.498 181.351 182.102C180.974 181.091 180.844 180 180.973 178.925C181.103 177.85 181.487 176.825 182.094 175.938C182.7 175.051 183.509 174.331 184.45 173.84C185.391 173.349 186.435 173.102 187.49 173.122L187.493 173.125ZM185.717 178.382C186.04 177.861 186.207 177.256 186.2 176.639C185.685 176.829 185.229 177.158 184.882 177.591C184.448 178.182 184.229 178.91 184.263 179.648C184.842 179.359 185.341 178.924 185.714 178.385L185.717 178.382Z" fill="white"/>
<path d="M177.298 196.393C176.046 198.105 174.185 199.237 172.121 199.542C171.729 199.598 171.331 199.5 171.007 199.269C170.682 199.037 170.454 198.688 170.369 198.292C170.036 197.196 169.954 196.036 170.13 194.903C170.306 193.77 170.735 192.694 171.384 191.759C172.022 191.012 172.805 190.411 173.684 189.994C174.562 189.578 175.516 189.355 176.484 189.34C176.834 189.34 177.174 189.46 177.45 189.682C177.726 189.903 177.922 190.213 178.006 190.562C178.316 191.527 178.413 192.551 178.291 193.56C178.168 194.568 177.829 195.536 177.298 196.393ZM173.872 193.765C173.439 194.356 173.22 195.083 173.253 195.822C173.838 195.549 174.338 195.117 174.698 194.571C175.021 194.051 175.189 193.445 175.181 192.829C174.671 193.015 174.219 193.339 173.872 193.765Z" fill="white"/>
<path d="M49.51 183.356C47.448 183.046 45.5883 181.914 44.3333 180.207C43.8072 179.343 43.469 178.372 43.3419 177.362C43.2148 176.351 43.3018 175.324 43.5968 174.351C43.6859 174.005 43.8829 173.698 44.1577 173.477C44.4326 173.257 44.7702 173.134 45.1192 173.129C46.087 173.144 47.041 173.367 47.9194 173.785C48.7978 174.202 49.581 174.804 50.2186 175.551C50.8663 176.486 51.2949 177.562 51.4709 178.695C51.6469 179.828 51.5657 180.988 51.2335 182.083C51.1588 182.481 50.9387 182.834 50.6183 183.071C50.2978 183.308 49.9013 183.41 49.51 183.356ZM47.8112 177.579C47.4582 177.139 46.9919 176.809 46.4652 176.627C46.4549 177.244 46.6229 177.85 46.9479 178.369C47.3205 178.903 47.8172 179.333 48.3929 179.62C48.4219 178.893 48.2176 178.176 47.8112 177.579Z" fill="white"/>
<path d="M60.2658 199.545C58.2039 199.234 56.3441 198.103 55.0891 196.396C54.563 195.532 54.2249 194.561 54.0978 193.55C53.9707 192.54 54.0576 191.513 54.3527 190.54C54.4417 190.193 54.6387 189.887 54.9136 189.666C55.1884 189.445 55.5261 189.323 55.8751 189.318C56.8427 189.332 57.7966 189.555 58.675 189.972C59.5534 190.388 60.3368 190.99 60.9745 191.736C61.6222 192.672 62.0507 193.748 62.2267 194.881C62.4028 196.014 62.3215 197.174 61.9894 198.269C61.9119 198.666 61.6913 199.017 61.3717 199.254C61.052 199.491 60.6571 199.595 60.2658 199.545ZM58.5392 193.768C58.1862 193.328 57.7199 192.998 57.1932 192.816C57.183 193.433 57.3509 194.039 57.6759 194.558C58.0485 195.092 58.5452 195.522 59.121 195.809C59.1625 195.081 58.9581 194.36 58.5423 193.768H58.5392Z" fill="white"/>
<path d="M73.0452 36.2359L53.576 36.2359C53.1587 36.2359 52.7585 36.0658 52.4635 35.7631C52.1684 35.4604 52.0026 35.0498 52.0026 34.6217C52.0026 34.1936 52.1684 33.7831 52.4635 33.4804C52.7585 33.1776 53.1587 33.0076 53.576 33.0076L73.036 33.0076C73.4533 33.0076 73.8535 33.1776 74.1486 33.4804C74.4436 33.7831 74.6094 34.1936 74.6094 34.6217C74.6094 35.0498 74.4436 35.4604 74.1486 35.7631C73.8535 36.0658 73.4533 36.2359 73.036 36.2359H73.0452Z" fill="white"/>
<path d="M177.289 36.2359L157.819 36.2359C157.402 36.2359 157.002 36.0658 156.707 35.7631C156.412 35.4604 156.246 35.0498 156.246 34.6217C156.246 34.1936 156.412 33.7831 156.707 33.4804C157.002 33.1776 157.402 33.0076 157.819 33.0076L177.276 33.0076C177.692 33.0101 178.091 33.1808 178.385 33.4827C178.679 33.7845 178.846 34.1932 178.848 34.6201C178.849 34.8313 178.81 35.0407 178.732 35.2363C178.654 35.4318 178.54 35.6097 178.395 35.7598C178.25 35.9099 178.078 36.0292 177.888 36.1108C177.698 36.1925 177.494 36.235 177.289 36.2359Z" fill="white"/>
<path d="M52.5983 52.4216C51.7301 52.4216 51.0264 51.6997 51.0264 50.8091C51.0264 49.9185 51.7301 49.1965 52.5983 49.1965C53.4664 49.1965 54.1702 49.9185 54.1702 50.8091C54.1702 51.6997 53.4664 52.4216 52.5983 52.4216Z" fill="white"/>
<path d="M115.894 47.3459C115.026 47.3459 114.323 46.624 114.323 45.7334C114.323 44.8428 115.026 44.1208 115.894 44.1208C116.763 44.1208 117.466 44.8428 117.466 45.7334C117.466 46.624 116.763 47.3459 115.894 47.3459Z" fill="white"/>
<path d="M145.067 50.8409H144.99C142.725 50.8051 140.52 50.0915 138.645 48.7877C136.77 47.484 135.307 45.6468 134.435 43.5018C133.006 40.7564 130.693 38.6039 127.891 37.4104C125.867 36.7745 123.688 36.9024 121.747 37.771C119.807 38.6396 118.234 40.1916 117.312 42.1464C117.19 42.4189 116.998 42.652 116.756 42.82C116.515 42.9879 116.232 43.0844 115.941 43.0987H115.764C115.473 43.0844 115.191 42.9879 114.949 42.82C114.707 42.652 114.515 42.4189 114.394 42.1464C113.471 40.1916 111.898 38.6396 109.958 37.771C108.018 36.9024 105.838 36.7745 103.814 37.4104C101.017 38.6119 98.7068 40.7623 97.2698 43.5018C96.3949 45.6595 94.9208 47.5057 93.0309 48.8106C91.1411 50.1155 88.9189 50.8215 86.641 50.8409C84.4721 50.7335 82.4009 49.8829 80.7589 48.4252C79.117 46.9675 77.999 44.9869 77.584 42.8003C77.0594 40.7713 77.2564 38.617 78.1399 36.7235C79.0233 34.8301 80.5354 33.3214 82.4049 32.468C82.7766 32.2917 83.2008 32.2711 83.587 32.4108C83.9733 32.5504 84.2912 32.8391 84.473 33.2156C84.6549 33.592 84.6863 34.0264 84.5607 34.4262C84.4351 34.8261 84.1623 35.1599 83.8004 35.3566C82.5748 35.8981 81.5813 36.8759 81.003 38.1097C80.4247 39.3434 80.3006 40.75 80.6536 42.0702C80.9315 43.542 81.6681 44.8811 82.7526 45.8859C83.837 46.8907 85.2103 47.5068 86.6657 47.6411C90.5986 47.6411 92.4768 45.6128 94.5809 41.8893C96.3997 38.4191 99.3702 35.7321 102.954 34.3154C105.263 33.6121 107.723 33.6289 110.022 34.3637C112.321 35.0985 114.356 36.5181 115.866 38.442C117.377 36.5181 119.412 35.0985 121.711 34.3637C124.01 33.6289 126.47 33.6121 128.779 34.3154C132.363 35.7321 135.333 38.4191 137.152 41.8893C139.256 45.6096 141.134 47.6411 144.99 47.6411H145.039C146.428 47.6481 147.78 47.1813 148.883 46.3143C149.985 45.4472 150.775 44.229 151.129 42.8511C151.517 41.3928 151.397 39.8413 150.791 38.4637C150.184 37.086 149.129 35.9682 147.806 35.3026C147.466 35.0736 147.226 34.7184 147.136 34.3116C147.046 33.9048 147.113 33.478 147.323 33.121C147.534 32.764 147.871 32.5044 148.263 32.3968C148.656 32.2893 149.074 32.3421 149.43 32.5442C151.342 33.5726 152.854 35.2398 153.717 37.2699C154.579 39.3 154.741 41.5713 154.174 43.7082C153.637 45.7621 152.453 47.5758 150.805 48.8662C149.158 50.1565 147.14 50.8509 145.067 50.8409Z" fill="white"/>
<path d="M179.751 52.4216C178.883 52.4216 178.179 51.6997 178.179 50.8091C178.179 49.9185 178.883 49.1965 179.751 49.1965C180.619 49.1965 181.323 49.9185 181.323 50.8091C181.323 51.6997 180.619 52.4216 179.751 52.4216Z" fill="white"/>
<path d="M184.164 36.2583C183.295 36.2583 182.592 35.5363 182.592 34.6458C182.592 33.7552 183.295 33.0332 184.164 33.0332C185.032 33.0332 185.735 33.7552 185.735 34.6458C185.735 35.5363 185.032 36.2583 184.164 36.2583Z" fill="white"/>
<path d="M47.016 36.2583C46.1479 36.2583 45.4441 35.5363 45.4441 34.6458C45.4441 33.7552 46.1479 33.0332 47.016 33.0332C47.8841 33.0332 48.5879 33.7552 48.5879 34.6458C48.5879 35.5363 47.8841 36.2583 47.016 36.2583Z" fill="white"/>
<path d="M148.341 40.683C148.341 41.5425 148.093 42.3827 147.627 43.0973C147.162 43.812 146.5 44.3689 145.726 44.6979C144.952 45.0268 144.101 45.1128 143.279 44.9451C142.457 44.7775 141.702 44.3636 141.11 43.7558C140.518 43.1481 140.114 42.3738 139.951 41.5308C139.787 40.6878 139.871 39.8141 140.192 39.02C140.512 38.226 141.055 37.5473 141.752 37.0698C142.449 36.5923 143.268 36.3374 144.105 36.3374C145.228 36.3399 146.304 36.7986 147.098 37.613C147.892 38.4274 148.339 39.5313 148.341 40.683ZM144.105 39.5371C143.884 39.5371 143.668 39.6043 143.485 39.7302C143.301 39.8561 143.158 40.0351 143.073 40.2445C142.989 40.4539 142.967 40.6843 143.01 40.9066C143.053 41.1289 143.159 41.3331 143.315 41.4933C143.472 41.6536 143.671 41.7627 143.887 41.8069C144.104 41.8511 144.329 41.8285 144.533 41.7417C144.737 41.655 144.911 41.5081 145.034 41.3197C145.157 41.1312 145.222 40.9097 145.222 40.683C145.219 40.3804 145.1 40.0912 144.891 39.8775C144.683 39.6638 144.4 39.5428 144.105 39.5403V39.5371Z" fill="white"/>
<path d="M87.0247 45.0286C86.1869 45.0286 85.368 44.7738 84.6713 44.2963C83.9747 43.8188 83.4318 43.1401 83.1112 42.346C82.7906 41.552 82.7066 40.6782 82.8701 39.8352C83.0335 38.9923 83.437 38.218 84.0294 37.6102C84.6218 37.0025 85.3767 36.5886 86.1984 36.4209C87.0201 36.2532 87.8718 36.3393 88.6458 36.6682C89.4199 36.9971 90.0815 37.5541 90.547 38.2687C91.0124 38.9834 91.2609 39.8236 91.2609 40.683C91.2584 41.8348 90.8113 42.9386 90.0174 43.7531C89.2235 44.5675 88.1475 45.0261 87.0247 45.0286ZM87.0247 39.5371C86.8038 39.5371 86.5878 39.6043 86.4041 39.7302C86.2204 39.8561 86.0773 40.0351 85.9928 40.2445C85.9083 40.4539 85.8861 40.6843 85.9292 40.9066C85.9723 41.1289 86.0787 41.3331 86.2349 41.4933C86.3911 41.6536 86.5902 41.7627 86.8069 41.8069C87.0236 41.8511 87.2481 41.8285 87.4522 41.7417C87.6563 41.655 87.8308 41.5081 87.9535 41.3197C88.0763 41.1312 88.1418 40.9097 88.1418 40.683C88.1394 40.3799 88.021 40.0899 87.812 39.8755C87.603 39.6611 87.3202 39.5396 87.0247 39.5371Z" fill="white"/>
<path d="M111.609 43.394C111.803 43.4648 111.981 43.5745 112.133 43.7168C112.285 43.859 112.408 44.031 112.494 44.2225C112.581 44.4141 112.629 44.6214 112.637 44.8323C112.644 45.0433 112.61 45.2536 112.538 45.451C112.39 45.8463 112.098 46.1671 111.724 46.3449C111.349 46.5227 110.922 46.5437 110.532 46.4033C110.279 46.2985 104.189 44.2162 99.523 51.6599C99.3785 51.8831 99.1826 52.0665 98.9528 52.1938C98.7229 52.3211 98.4661 52.3885 98.2049 52.39C97.9061 52.3925 97.6136 52.3018 97.3663 52.1297C97.1917 52.017 97.0406 51.8699 96.9217 51.6969C96.8029 51.5239 96.7186 51.3285 96.6737 51.1219C96.6288 50.9153 96.6242 50.7017 96.6603 50.4933C96.6963 50.2849 96.7722 50.0859 96.8836 49.9077C98.2461 47.2621 100.449 45.1737 103.128 43.9889C105.806 42.8042 108.799 42.5943 111.609 43.394Z" fill="white"/>
<path d="M120.081 43.3937C121.744 42.8517 123.508 42.718 125.23 43.0033C127.227 43.3621 129.121 44.1716 130.775 45.3733C132.429 46.5751 133.802 48.139 134.795 49.9519C134.908 50.1294 134.986 50.3284 135.023 50.5372C135.06 50.746 135.056 50.9603 135.011 51.1675C134.966 51.3747 134.881 51.5705 134.761 51.7433C134.641 51.9162 134.488 52.0626 134.312 52.1739C134.065 52.3459 133.772 52.4367 133.473 52.4342C133.212 52.4323 132.956 52.3648 132.726 52.2376C132.496 52.1103 132.3 51.9271 132.155 51.7041C127.514 44.2603 121.424 46.3427 121.146 46.4474C120.953 46.5221 120.748 46.5567 120.543 46.5491C120.337 46.5415 120.135 46.4919 119.948 46.4033C119.762 46.3146 119.594 46.1886 119.455 46.0327C119.317 45.8767 119.21 45.694 119.141 45.4951C119.068 45.2938 119.034 45.0797 119.042 44.865C119.049 44.6502 119.098 44.4392 119.186 44.244C119.273 44.0487 119.397 43.8731 119.551 43.7272C119.705 43.5813 119.885 43.468 120.081 43.3937Z" fill="white"/>
<path d="M47.9035 47.7904L40.2669 38.9024L40.2669 51.7297C40.2669 52.1578 40.101 52.5684 39.8059 52.8711C39.5109 53.1738 39.1107 53.3439 38.6934 53.3439C38.2761 53.3439 37.8759 53.1738 37.5808 52.8711C37.2857 52.5684 37.12 52.1578 37.12 51.7297L37.12 34.6456C37.1188 34.3187 37.2149 33.9991 37.3955 33.7297C37.5761 33.4602 37.8325 33.2538 38.1306 33.1378C38.4286 33.0219 38.7538 33.002 39.0632 33.0809C39.3725 33.1597 39.651 33.3335 39.8615 33.5791L50.2367 45.6795C50.3737 45.8373 50.4784 46.0216 50.5451 46.2215C50.6117 46.4215 50.6389 46.6331 50.6248 46.8439C50.6107 47.0547 50.5556 47.2605 50.4629 47.4492C50.3703 47.6379 50.2418 47.8057 50.085 47.9428C49.9339 48.0836 49.7564 48.1917 49.5636 48.2605C49.3707 48.3293 49.1664 48.3574 48.9626 48.3432C48.7589 48.329 48.5601 48.2727 48.3781 48.1777C48.1961 48.0827 48.0347 47.951 47.9035 47.7904Z" fill="white"/>
<path d="M192.763 53.3585C192.347 53.356 191.948 53.1853 191.654 52.8834C191.36 52.5815 191.193 52.1728 191.191 51.7459V38.9154L183.554 47.8034C183.276 48.1 182.896 48.2753 182.495 48.2932C182.094 48.311 181.701 48.1701 181.399 47.8994C181.096 47.6288 180.906 47.2492 180.868 46.839C180.831 46.4288 180.948 46.0195 181.196 45.6957L191.572 33.5666C191.782 33.3223 192.061 33.1495 192.369 33.0714C192.678 32.9933 193.003 33.0134 193.3 33.1292C193.597 33.245 193.853 33.451 194.034 33.7196C194.214 33.9883 194.31 34.307 194.31 34.6332V51.73C194.315 51.9419 194.279 52.1528 194.204 52.3501C194.129 52.5475 194.016 52.7273 193.871 52.8791C193.727 53.0309 193.555 53.1515 193.364 53.2338C193.174 53.3162 192.969 53.3585 192.763 53.3585Z" fill="white"/>
<path d="M82.0002 54.9454C82.3706 54.9034 82.7432 55 83.0497 55.2174C83.3562 55.4347 83.5759 55.7583 83.6685 56.1285C83.7611 56.4988 83.7203 56.8909 83.5537 57.2328C83.387 57.5747 83.1057 57.8434 82.7614 57.9895C80.6523 59.0541 78.3385 59.6234 75.988 59.656C72.6306 59.6004 69.3983 58.339 66.8537 56.0913C64.679 54.2165 62.878 51.9282 61.5501 49.3522C61.375 48.9896 61.3417 48.5721 61.4567 48.185C61.5717 47.798 61.8265 47.4706 62.169 47.2698C63.7656 46.3175 66.5319 45.7081 70.7432 48.3364C72.1894 49.2559 73.5376 50.3283 74.7657 51.5361C76.6957 53.533 79.2661 54.7443 82.0002 54.9454ZM72.64 53.9296L72.5626 53.8502C70.6209 51.7499 68.113 50.291 65.3592 49.6601C66.3347 51.1284 67.4947 52.4582 68.8093 53.6153C70.8262 55.4393 73.4262 56.4391 76.1149 56.4245C74.8662 55.7352 73.7001 54.899 72.64 53.9327V53.9296Z" fill="white"/>
<path d="M168.764 47.2698C169.107 47.4706 169.361 47.7979 169.476 48.185C169.591 48.572 169.558 48.9896 169.383 49.3522C168.055 51.9293 166.254 54.2187 164.079 56.0944C161.537 58.3466 158.304 59.6086 154.945 59.6592C152.594 59.6322 150.279 59.0627 148.172 57.9927C147.847 57.8286 147.588 57.5551 147.436 57.2182C147.285 56.8812 147.251 56.5011 147.34 56.1415C147.429 55.782 147.636 55.4648 147.926 55.2429C148.216 55.0211 148.571 54.9082 148.933 54.9231C151.664 54.7347 154.235 53.5317 156.164 51.5393C157.392 50.3315 158.741 49.2591 160.187 48.3396C161.375 47.3552 162.81 46.733 164.326 46.5438C165.842 46.3547 167.38 46.6063 168.764 47.2698ZM158.262 53.9359C157.205 54.9075 156.038 55.7461 154.787 56.434C156.983 56.2959 159.113 55.6065 160.988 54.4265C162.863 53.2464 164.428 51.6119 165.543 49.6665C162.789 50.2974 160.281 51.7562 158.34 53.8565L158.262 53.9359Z" fill="white"/>
<path d="M44.5066 64.5003C44.1564 64.4996 43.8164 64.379 43.5406 64.1576C43.2648 63.9362 43.069 63.6267 42.9842 63.2781C42.6825 62.306 42.592 61.2779 42.7193 60.2661C42.8465 59.2543 43.1883 58.2833 43.7206 57.4215C44.9717 55.7102 46.8333 54.5778 48.8973 54.2727C49.289 54.2168 49.6869 54.3146 50.0115 54.5464C50.3362 54.7782 50.5638 55.1271 50.6488 55.5233C51.0263 56.5347 51.1561 57.6256 51.0267 58.7004C50.8972 59.7752 50.5125 60.801 49.9063 61.6876C49.3002 62.5743 48.4911 63.2947 47.5501 63.7857C46.6092 64.2767 45.5652 64.5231 44.5097 64.5034L44.5066 64.5003ZM46.2827 59.2436C45.9602 59.7641 45.7924 60.3696 45.8 60.9863C46.315 60.7965 46.7705 60.4675 47.1182 60.034C47.5517 59.4433 47.7705 58.7157 47.7369 57.977C47.1575 58.2666 46.6584 58.7011 46.2857 59.2405L46.2827 59.2436Z" fill="white"/>
<path d="M54.7027 41.2321C55.9538 39.5208 57.8154 38.3883 59.8794 38.0832C60.2711 38.0274 60.669 38.1251 60.9936 38.357C61.3183 38.5888 61.5458 38.9376 61.6308 39.3339C61.9645 40.4293 62.0464 41.589 61.8703 42.7224C61.6942 43.8557 61.2649 44.9319 60.6159 45.8666C59.9782 46.6134 59.1948 47.2145 58.3164 47.6312C57.438 48.0478 56.4842 48.2707 55.5165 48.2854C55.1662 48.2853 54.8258 48.165 54.5499 47.9435C54.274 47.722 54.0784 47.4122 53.9941 47.0633C53.684 46.0982 53.5868 45.0744 53.7093 44.066C53.8318 43.0576 54.1711 42.0896 54.7027 41.2321ZM58.1281 43.8604C58.5616 43.2697 58.7805 42.5421 58.747 41.8035C58.1624 42.0762 57.6623 42.509 57.3018 43.0542C56.9793 43.5746 56.8117 44.1802 56.8193 44.7969C57.3292 44.6101 57.781 44.2867 58.1281 43.8604Z" fill="white"/>
<path d="M182.49 54.2693C184.552 54.58 186.412 55.7113 187.667 57.4182C188.193 58.2826 188.531 59.2534 188.658 60.2641C188.785 61.2748 188.698 62.3017 188.403 63.2748C188.314 63.621 188.117 63.9278 187.843 64.1484C187.568 64.3691 187.23 64.4914 186.881 64.4969C185.913 64.4816 184.959 64.2581 184.081 63.8409C183.202 63.4237 182.419 62.8221 181.782 62.0749C181.134 61.1395 180.705 60.0634 180.529 58.9303C180.353 57.7973 180.435 56.6378 180.767 55.5422C180.841 55.1445 181.062 54.7911 181.382 54.5545C181.702 54.3178 182.099 54.2158 182.49 54.2693ZM184.189 60.0465C184.542 60.4869 185.008 60.8168 185.535 60.9988C185.545 60.3818 185.377 59.7754 185.052 59.2561C184.68 58.7222 184.183 58.2923 183.607 58.0054C183.578 58.7328 183.783 59.4498 184.189 60.0465Z" fill="white"/>
<path d="M171.734 38.0802C173.796 38.3909 175.656 39.5222 176.911 41.2291C177.437 42.0935 177.775 43.0642 177.902 44.0749C178.03 45.0857 177.943 46.1126 177.648 47.0857C177.559 47.4319 177.362 47.7387 177.087 47.9593C176.812 48.18 176.474 48.3023 176.125 48.3078C175.158 48.2931 174.204 48.0702 173.325 47.6535C172.447 47.2369 171.663 46.6357 171.026 45.889C170.378 44.9536 169.95 43.8775 169.774 42.7444C169.597 41.6113 169.679 40.4519 170.011 39.3563C170.088 38.9598 170.309 38.608 170.629 38.3713C170.948 38.1347 171.343 38.0307 171.734 38.0802ZM173.461 43.8574C173.814 44.2978 174.28 44.6277 174.807 44.8097C174.817 44.1927 174.649 43.5863 174.324 43.067C173.952 42.5331 173.455 42.1032 172.879 41.8163C172.838 42.5447 173.042 43.2655 173.458 43.8574H173.461Z" fill="white"/>
<path d="M179.876 118.71C179.876 117.819 180.58 117.097 181.448 117.097C182.316 117.097 183.02 117.819 183.02 118.71C183.02 119.6 182.316 120.322 181.448 120.322C180.58 120.322 179.876 119.6 179.876 118.71Z" fill="white"/>
<path d="M176.469 148.637L176.469 148.558C176.504 146.234 177.199 143.972 178.47 142.048C179.741 140.125 181.532 138.624 183.623 137.73C186.299 136.264 188.397 133.891 189.561 131.017C190.181 128.94 190.056 126.705 189.209 124.714C188.363 122.724 186.85 121.11 184.944 120.164C184.679 120.039 184.451 119.842 184.288 119.594C184.124 119.346 184.03 119.057 184.016 118.757L184.016 118.577C184.03 118.277 184.124 117.988 184.288 117.74C184.451 117.492 184.679 117.295 184.944 117.17C186.85 116.224 188.363 114.61 189.209 112.62C190.056 110.629 190.181 108.394 189.561 106.317C188.39 103.448 186.293 101.078 183.623 99.6037C181.52 98.7061 179.72 97.1938 178.448 95.2551C177.176 93.3164 176.488 91.0368 176.469 88.6999C176.574 86.4749 177.403 84.3502 178.824 82.6658C180.245 80.9813 182.175 79.8345 184.307 79.4087C186.285 78.8705 188.385 79.0727 190.23 79.979C192.076 80.8853 193.547 82.4364 194.379 84.3543C194.551 84.7356 194.571 85.1708 194.434 85.567C194.298 85.9632 194.017 86.2893 193.65 86.4759C193.283 86.6625 192.86 86.6947 192.47 86.5658C192.08 86.437 191.755 86.1572 191.563 85.7859C191.035 84.5286 190.082 83.5094 188.879 82.9162C187.677 82.3229 186.305 82.1956 185.018 82.5577C183.584 82.8428 182.278 83.5985 181.299 84.7109C180.32 85.8234 179.719 87.2323 179.588 88.7253C179.588 92.7599 181.565 94.6867 185.195 96.8452C188.578 98.711 191.197 101.758 192.578 105.435C193.263 107.803 193.247 110.327 192.531 112.686C191.815 115.045 190.431 117.131 188.555 118.681C190.431 120.231 191.815 122.318 192.531 124.677C193.247 127.035 193.263 129.559 192.578 131.928C191.197 135.604 188.578 138.652 185.195 140.517C181.568 142.676 179.588 144.603 179.588 148.558L179.588 148.609C179.581 150.034 180.036 151.42 180.881 152.551C181.727 153.682 182.914 154.493 184.257 154.856C185.679 155.254 187.191 155.131 188.534 154.509C189.877 153.887 190.967 152.804 191.615 151.446C191.839 151.098 192.185 150.851 192.582 150.759C192.978 150.667 193.394 150.736 193.742 150.952C194.09 151.167 194.343 151.513 194.448 151.916C194.553 152.319 194.501 152.748 194.304 153.113C193.302 155.074 191.677 156.626 189.698 157.511C187.719 158.395 185.505 158.561 183.422 157.979C181.42 157.429 179.652 156.214 178.394 154.523C177.136 152.833 176.459 150.764 176.469 148.637Z" fill="white"/>
<path d="M186.371 151.996C185.533 151.996 184.714 151.741 184.017 151.264C183.321 150.786 182.778 150.108 182.457 149.313C182.136 148.519 182.052 147.646 182.216 146.803C182.379 145.96 182.783 145.185 183.375 144.578C183.968 143.97 184.722 143.556 185.544 143.388C186.366 143.221 187.218 143.307 187.992 143.636C188.766 143.964 189.427 144.522 189.893 145.236C190.358 145.951 190.607 146.791 190.607 147.65C190.604 148.802 190.157 149.906 189.363 150.72C188.569 151.535 187.493 151.994 186.371 151.996ZM187.488 147.65C187.488 147.424 187.422 147.202 187.299 147.014C187.177 146.825 187.002 146.678 186.798 146.592C186.594 146.505 186.369 146.482 186.153 146.527C185.936 146.571 185.737 146.68 185.581 146.84C185.425 147 185.318 147.205 185.275 147.427C185.232 147.649 185.254 147.88 185.339 148.089C185.423 148.298 185.566 148.477 185.75 148.603C185.934 148.729 186.15 148.796 186.371 148.796C186.666 148.793 186.948 148.671 187.156 148.457C187.364 148.243 187.482 147.953 187.485 147.65L187.488 147.65Z" fill="white"/>
<path d="M182.135 89.0935C182.135 88.234 182.383 87.3939 182.848 86.6793C183.314 85.9646 183.976 85.4077 184.75 85.0788C185.524 84.7498 186.375 84.6638 187.197 84.8314C188.019 84.9991 188.774 85.413 189.366 86.0207C189.958 86.6285 190.362 87.4028 190.525 88.2458C190.689 89.0888 190.605 89.9625 190.284 90.7565C189.964 91.5506 189.421 92.2294 188.724 92.7069C188.027 93.1844 187.208 93.4392 186.371 93.4392C185.248 93.4367 184.172 92.978 183.378 92.1636C182.584 91.3492 182.137 90.2453 182.135 89.0935ZM187.488 89.0935C187.488 88.8669 187.422 88.6453 187.299 88.4569C187.177 88.2684 187.002 88.1216 186.798 88.0349C186.594 87.9482 186.369 87.9254 186.153 87.9696C185.936 88.0138 185.737 88.123 185.581 88.2833C185.425 88.4435 185.318 88.6478 185.275 88.87C185.232 89.0923 185.254 89.3227 185.339 89.5321C185.423 89.7415 185.566 89.9204 185.75 90.0464C185.934 90.1723 186.15 90.2395 186.371 90.2395C186.666 90.237 186.949 90.1155 187.158 89.9011C187.367 89.6868 187.485 89.3967 187.488 89.0935Z" fill="white"/>
<path d="M183.728 114.314C183.659 114.513 183.552 114.696 183.413 114.851C183.275 115.007 183.107 115.133 182.92 115.222C182.734 115.311 182.532 115.36 182.326 115.368C182.12 115.375 181.915 115.341 181.723 115.266C181.338 115.115 181.025 114.815 180.852 114.431C180.678 114.047 180.658 113.609 180.795 113.209C180.897 112.949 182.927 106.702 175.671 101.915C175.453 101.767 175.274 101.566 175.15 101.33C175.026 101.094 174.96 100.831 174.959 100.563C174.956 100.256 175.045 99.9563 175.213 99.7026C175.323 99.5235 175.466 99.3685 175.635 99.2465C175.803 99.1246 175.994 99.0381 176.195 98.992C176.396 98.946 176.605 98.9413 176.808 98.9783C177.011 99.0152 177.205 99.0931 177.379 99.2074C179.958 100.605 181.993 102.865 183.148 105.613C184.303 108.36 184.508 111.431 183.728 114.314Z" fill="white"/>
<path d="M183.728 123.005C184.257 124.711 184.387 126.52 184.109 128.287C183.759 130.335 182.97 132.278 181.798 133.975C180.627 135.672 179.103 137.08 177.335 138.099C177.162 138.215 176.968 138.295 176.765 138.333C176.561 138.371 176.352 138.367 176.15 138.321C175.948 138.274 175.758 138.187 175.589 138.064C175.421 137.941 175.278 137.784 175.169 137.603C175.002 137.35 174.913 137.05 174.916 136.743C174.917 136.475 174.983 136.212 175.107 135.976C175.231 135.74 175.41 135.539 175.627 135.391C182.883 130.629 180.854 124.382 180.751 124.097C180.679 123.899 180.645 123.689 180.652 123.478C180.66 123.267 180.708 123.06 180.795 122.868C180.881 122.677 181.004 122.505 181.156 122.362C181.308 122.22 181.486 122.111 181.68 122.04C181.876 121.965 182.085 121.93 182.294 121.938C182.503 121.946 182.709 121.996 182.899 122.086C183.09 122.175 183.261 122.303 183.403 122.46C183.545 122.618 183.656 122.803 183.728 123.005Z" fill="white"/>
<path d="M172.468 83.9392C172.509 84.3192 172.415 84.7014 172.203 85.0159C171.991 85.3303 171.675 85.5557 171.314 85.6507C170.953 85.7456 170.571 85.7038 170.238 85.5329C169.905 85.3619 169.643 85.0733 169.5 84.7201C168.463 82.5564 167.908 80.1828 167.876 77.7716C167.93 74.3272 169.16 71.0114 171.351 68.401C173.178 66.1701 175.409 64.3225 177.92 62.9602C178.273 62.7806 178.68 62.7464 179.058 62.8644C179.435 62.9824 179.754 63.2438 179.95 63.5951C180.878 65.233 181.472 68.0708 178.91 72.3911C178.014 73.8747 176.968 75.2577 175.791 76.5176C173.845 78.4975 172.664 81.1344 172.468 83.9392ZM173.458 74.337L173.535 74.2575C175.583 72.2656 177.005 69.6929 177.62 66.8678C176.189 67.8686 174.892 69.0586 173.764 70.4071C171.986 72.4762 171.012 75.1435 171.026 77.9017C171.698 76.6207 172.513 75.4244 173.455 74.337L173.458 74.337Z" fill="white"/>
<path d="M179.95 172.947C179.754 173.298 179.435 173.559 179.058 173.677C178.68 173.795 178.273 173.761 177.92 173.581C175.408 172.219 173.176 170.372 171.347 168.141C169.152 165.533 167.922 162.215 167.873 158.77C167.899 156.358 168.454 153.983 169.497 151.822C169.657 151.489 169.924 151.223 170.252 151.067C170.581 150.912 170.951 150.877 171.302 150.969C171.652 151.06 171.961 151.272 172.177 151.57C172.394 151.867 172.504 152.232 172.489 152.602C172.673 155.404 173.846 158.042 175.788 160.021C176.965 161.281 178.01 162.664 178.907 164.147C179.866 165.367 180.473 166.838 180.657 168.394C180.842 169.949 180.596 171.527 179.95 172.947ZM173.452 162.173C172.504 161.088 171.687 159.892 171.016 158.608C171.151 160.861 171.823 163.045 172.973 164.969C174.124 166.893 175.717 168.498 177.613 169.642C176.998 166.817 175.576 164.244 173.529 162.252L173.452 162.173Z" fill="white"/>
<path fill-rule="evenodd" clip-rule="evenodd" d="M92.5493 108.719C92.5493 107.018 93.1857 105.386 94.3185 104.183C95.4513 102.98 96.9877 102.304 98.5897 102.304H121.241C122.706 102.304 124.121 102.869 125.223 103.894C126.325 104.92 127.038 106.336 127.23 107.879L136.623 103.446C137.082 103.228 137.586 103.136 138.088 103.178C138.59 103.22 139.074 103.394 139.496 103.685C139.918 103.976 140.265 104.374 140.505 104.844C140.746 105.314 140.872 105.84 140.872 106.374V130.309C140.872 130.844 140.746 131.369 140.505 131.839C140.265 132.308 139.918 132.706 139.497 132.997C139.075 133.288 138.591 133.462 138.09 133.504C137.589 133.546 137.085 133.455 136.626 133.238L127.23 128.805C127.038 130.348 126.325 131.764 125.223 132.789C124.121 133.815 122.706 134.38 121.241 134.38H98.5897C96.9877 134.38 95.4513 133.704 94.3185 132.501C93.1857 131.298 92.5493 129.666 92.5493 127.965V108.719ZM127.281 125.318L137.852 130.309V106.374L127.281 111.365V125.318ZM98.5897 105.511C97.7887 105.511 97.0205 105.849 96.4541 106.451C95.8877 107.052 95.5695 107.868 95.5695 108.719V127.965C95.5695 128.815 95.8877 129.631 96.4541 130.233C97.0205 130.834 97.7887 131.172 98.5897 131.172H121.241C122.042 131.172 122.81 130.834 123.376 130.233C123.943 129.631 124.261 128.815 124.261 127.965V108.719C124.261 107.868 123.943 107.052 123.376 106.451C122.81 105.849 122.042 105.511 121.241 105.511H98.5897Z" fill="white"/>
<defs>
<linearGradient id="paint0_linear_202_1767" x1="0" y1="119" x2="232" y2="119" gradientUnits="userSpaceOnUse">
<stop stop-color="#6361EC"/>
<stop offset="1" stop-color="#7000FF"/>
</linearGradient>
</defs>
</svg>
